<?xml version="1.0" encoding="UTF-8"?>
<svg xmlns="http://www.w3.org/2000/svg" xmlns:xlink="http://www.w3.org/1999/xlink" width="40px" height="30px" viewBox="0 0 40 30" version="1.1">
    <defs>
        <linearGradient id="linear0" gradientUnits="userSpaceOnUse" x1="122.860001" y1="297.440002" x2="199.389999" y2="297.440002" gradientTransform="matrix(0.0329249,0,0,0.0395293,0.808153,-1.836398)">
            <stop offset="0" style="stop-color:rgb(17.254902%,41.960784%,20.784314%);stop-opacity:1;"/>
            <stop offset="1" style="stop-color:rgb(57.254902%,75.686275%,26.666667%);stop-opacity:1;"/>
        </linearGradient>
        <linearGradient id="linear1" gradientUnits="userSpaceOnUse" x1="168.380005" y1="253.399994" x2="238.160004" y2="253.399994" gradientTransform="matrix(0.0329249,0,0,0.0395293,0.808153,-1.836398)">
            <stop offset="0" style="stop-color:rgb(17.254902%,41.960784%,20.784314%);stop-opacity:1;"/>
            <stop offset="1" style="stop-color:rgb(57.254902%,75.686275%,26.666667%);stop-opacity:1;"/>
        </linearGradient>
        <linearGradient id="linear2" gradientUnits="userSpaceOnUse" x1="223.279999" y1="217.570007" x2="302.149994" y2="217.570007" gradientTransform="matrix(0.0329249,0,0,0.0395293,0.808153,-1.836398)">
            <stop offset="0" style="stop-color:rgb(17.254902%,41.960784%,20.784314%);stop-opacity:1;"/>
            <stop offset="1" style="stop-color:rgb(57.254902%,75.686275%,26.666667%);stop-opacity:1;"/>
        </linearGradient>
        <linearGradient id="linear3" gradientUnits="userSpaceOnUse" x1="269.839996" y1="174.029999" x2="345.200012" y2="174.029999" gradientTransform="matrix(0.0329249,0,0,0.0395293,0.808153,-1.836398)">
            <stop offset="0" style="stop-color:rgb(17.254902%,41.960784%,20.784314%);stop-opacity:1;"/>
            <stop offset="1" style="stop-color:rgb(57.254902%,75.686275%,26.666667%);stop-opacity:1;"/>
        </linearGradient>
        <linearGradient id="linear4" gradientUnits="userSpaceOnUse" x1="327.519989" y1="256.630005" x2="351.559998" y2="97.269997" gradientTransform="matrix(0.0329249,0,0,0.0395293,0.808153,-1.836398)">
            <stop offset="0" style="stop-color:rgb(57.254902%,75.686275%,26.666667%);stop-opacity:1;"/>
            <stop offset="1" style="stop-color:rgb(17.254902%,41.960784%,20.784314%);stop-opacity:1;"/>
        </linearGradient>
        <linearGradient id="linear5" gradientUnits="userSpaceOnUse" x1="234.460007" y1="251.75" x2="397.140015" y2="251.75" gradientTransform="matrix(0.0329249,0,0,0.0395293,0.808153,-1.836398)">
            <stop offset="0" style="stop-color:rgb(57.254902%,75.686275%,26.666667%);stop-opacity:1;"/>
            <stop offset="1" style="stop-color:rgb(17.254902%,41.960784%,20.784314%);stop-opacity:1;"/>
        </linearGradient>
        <linearGradient id="linear6" gradientUnits="userSpaceOnUse" x1="179.449997" y1="340.579987" x2="368.709991" y2="340.579987" gradientTransform="matrix(0.0329249,0,0,0.0395293,0.808153,-1.836398)">
            <stop offset="0" style="stop-color:rgb(57.254902%,75.686275%,26.666667%);stop-opacity:1;"/>
            <stop offset="1" style="stop-color:rgb(17.254902%,41.960784%,20.784314%);stop-opacity:1;"/>
        </linearGradient>
        <linearGradient id="linear7" gradientUnits="userSpaceOnUse" x1="135.460007" y1="391.130005" x2="298.23999" y2="391.130005" gradientTransform="matrix(0.0329249,0,0,0.0395293,0.808153,-1.836398)">
            <stop offset="0" style="stop-color:rgb(57.254902%,75.686275%,26.666667%);stop-opacity:1;"/>
            <stop offset="1" style="stop-color:rgb(17.254902%,41.960784%,20.784314%);stop-opacity:1;"/>
        </linearGradient>
        <filter id="alpha" filterUnits="objectBoundingBox" x="0%" y="0%" width="100%" height="100%">
            <feColorMatrix type="matrix" in="SourceGraphic" values="0 0 0 0 1 0 0 0 0 1 0 0 0 0 1 0 0 0 1 0"/>
        </filter>
        <mask id="mask0">
            <g filter="url(#alpha)">
                <rect x="0" y="0" width="40" height="30" style="fill:rgb(0%,0%,0%);fill-opacity:0.439216;stroke:none;"/>
            </g>
        </mask>
        <linearGradient id="linear8" gradientUnits="userSpaceOnUse" x1="322.570007" y1="64.626999" x2="112.379997" y2="410.130005" gradientTransform="matrix(0.0329249,0,0,0.0395293,0.808153,-1.836398)">
            <stop offset="0" style="stop-color:rgb(48.235294%,78.431373%,80.392157%);stop-opacity:1;"/>
            <stop offset="1" style="stop-color:rgb(48.235294%,78.431373%,80.392157%);stop-opacity:0;"/>
        </linearGradient>
        <clipPath id="clip1">
            <rect x="0" y="0" width="40" height="30"/>
        </clipPath>
        <g id="surface5" clip-path="url(#clip1)">
            <path style=" stroke:none;fill-rule:nonzero;fill:url(#linear8);" d="M 10.523438 8.203125 C 11.800781 6.320312 12.089844 2.792969 12.152344 0.789062 C 11.898438 1.851562 10.363281 3.800781 8.023438 4.402344 C 5.488281 5.054688 4.757812 8.058594 4.855469 10.265625 C 4.878906 10.757812 5.105469 12.246094 5.214844 15.234375 C 5.234375 15.183594 5.246094 15.136719 5.261719 15.09375 C 5.261719 14.804688 5.265625 14.496094 5.265625 14.164062 C 5.257812 12.574219 7.964844 11.980469 10.523438 8.203125 Z M 10.523438 8.203125 "/>
        </g>
        <linearGradient id="linear9" gradientUnits="userSpaceOnUse" x1="134.919998" y1="244.949997" x2="396.600006" y2="244.949997" gradientTransform="matrix(0.0329249,0,0,0.0395293,0.808153,-1.836398)">
            <stop offset="0" style="stop-color:rgb(9.803922%,34.901961%,54.901961%);stop-opacity:1;"/>
            <stop offset="1" style="stop-color:rgb(9.803922%,34.901961%,54.901961%);stop-opacity:0;"/>
        </linearGradient>
        <linearGradient id="linear10" gradientUnits="userSpaceOnUse" x1="135.059998" y1="243.970001" x2="346.420013" y2="243.970001" gradientTransform="matrix(0.0329249,0,0,0.0395293,0.808153,-1.836398)">
            <stop offset="0" style="stop-color:rgb(17.254902%,41.960784%,20.784314%);stop-opacity:1;"/>
            <stop offset="0.4988" style="stop-color:rgb(57.254902%,75.686275%,26.666667%);stop-opacity:1;"/>
            <stop offset="1" style="stop-color:rgb(17.254902%,41.960784%,20.784314%);stop-opacity:1;"/>
        </linearGradient>
        <linearGradient id="linear11" gradientUnits="userSpaceOnUse" x1="135.059998" y1="412.160004" x2="205.050003" y2="412.160004" gradientTransform="matrix(0.0329249,0,0,0.0395293,0.808153,-1.836398)">
            <stop offset="0" style="stop-color:rgb(17.254902%,41.960784%,20.784314%);stop-opacity:1;"/>
            <stop offset="0.4988" style="stop-color:rgb(57.254902%,75.686275%,26.666667%);stop-opacity:1;"/>
            <stop offset="1" style="stop-color:rgb(17.254902%,41.960784%,20.784314%);stop-opacity:1;"/>
        </linearGradient>
        <linearGradient id="linear12" gradientUnits="userSpaceOnUse" x1="122.900002" y1="248.529999" x2="345.25" y2="248.529999" gradientTransform="matrix(0.0329249,0,0,0.0395293,0.808153,-1.836398)">
            <stop offset="0" style="stop-color:rgb(17.254902%,41.960784%,20.784314%);stop-opacity:1;"/>
            <stop offset="0.4988" style="stop-color:rgb(57.254902%,75.686275%,26.666667%);stop-opacity:1;"/>
            <stop offset="1" style="stop-color:rgb(17.254902%,41.960784%,20.784314%);stop-opacity:1;"/>
        </linearGradient>
    </defs>
    <g id="surface1">
        <path style=" stroke:none;fill-rule:nonzero;fill:rgb(64.705884%,16.862746%,0%);fill-opacity:1;" d="M 21.28125 18.074219 C 17.957031 18.074219 14.957031 18.476562 12.695312 19.136719 L 12.695312 18.988281 C 10.433594 19.726562 8.996094 20.75 8.996094 21.878906 C 8.996094 22.058594 9.035156 22.234375 9.101562 22.40625 L 8.871094 22.828125 C 8.871094 22.828125 8.683594 23.070312 9.015625 23.589844 C 9.304688 24.046875 10.757812 25.832031 11.523438 26.769531 C 11.855469 27.25 12.078125 27.542969 12.097656 27.515625 C 12.128906 27.472656 11.894531 26.570312 11.238281 25.542969 C 10.933594 24.992188 10.5625 24.257812 10.34375 23.71875 C 10.953125 24.109375 11.769531 24.464844 12.695312 24.773438 L 12.695312 24.765625 C 14.957031 25.425781 17.957031 25.832031 21.28125 25.832031 C 25.082031 25.832031 28.492188 25.300781 30.78125 24.464844 L 30.78125 19.4375 C 28.492188 18.601562 25.082031 18.074219 21.28125 18.074219 "/>
        <path style=" stroke:none;fill-rule:nonzero;fill:rgb(64.705884%,16.862746%,0%);fill-opacity:1;" d="M 34.199219 22.734375 L 33.808594 21.917969 C 33.8125 21.886719 33.8125 21.855469 33.8125 21.824219 C 33.8125 20.898438 32.863281 20.046875 31.261719 19.363281 L 31.261719 24.289062 C 32.007812 23.96875 32.613281 23.613281 33.046875 23.230469 C 32.921875 23.75 32.484375 24.800781 32.136719 25.539062 C 31.566406 26.59375 31.359375 27.515625 31.386719 27.558594 C 31.402344 27.589844 31.597656 27.285156 31.882812 26.789062 C 32.554688 25.824219 33.820312 23.984375 34.074219 23.515625 C 34.359375 22.980469 34.199219 22.734375 34.199219 22.734375 "/>
        <path style=" stroke:none;fill-rule:nonzero;fill:rgb(96.862745%,29.803923%,0%);fill-opacity:1;" d="M 36.460938 22.730469 L 33.902344 20.820312 C 33.875 20.738281 33.851562 20.652344 33.828125 20.566406 L 34.667969 19.335938 C 34.753906 19.210938 34.773438 19.046875 34.714844 18.902344 C 34.660156 18.761719 34.539062 18.660156 34.394531 18.632812 L 32.972656 18.390625 C 32.917969 18.277344 32.859375 18.164062 32.800781 18.050781 L 33.398438 16.667969 C 33.460938 16.527344 33.445312 16.363281 33.367188 16.234375 C 33.285156 16.105469 33.148438 16.03125 33 16.035156 L 31.558594 16.089844 C 31.484375 15.992188 31.40625 15.894531 31.328125 15.796875 L 31.660156 14.3125 C 31.695312 14.164062 31.652344 14.003906 31.546875 13.894531 C 31.445312 13.785156 31.296875 13.742188 31.152344 13.777344 L 29.746094 14.125 C 29.65625 14.046875 29.5625 13.964844 29.472656 13.886719 L 29.519531 12.363281 C 29.527344 12.207031 29.457031 12.0625 29.332031 11.976562 C 29.210938 11.890625 29.058594 11.875 28.925781 11.941406 L 27.613281 12.570312 C 27.507812 12.511719 27.402344 12.449219 27.292969 12.390625 L 27.0625 10.890625 C 27.039062 10.738281 26.941406 10.609375 26.808594 10.550781 C 26.671875 10.488281 26.515625 10.507812 26.398438 10.601562 L 25.230469 11.488281 C 25.117188 11.449219 25 11.410156 24.882812 11.375 L 24.378906 9.953125 C 24.328125 9.808594 24.210938 9.699219 24.066406 9.671875 C 23.921875 9.640625 23.773438 9.691406 23.675781 9.804688 L 22.691406 10.917969 C 22.570312 10.90625 22.453125 10.890625 22.332031 10.882812 L 21.574219 9.585938 C 21.496094 9.453125 21.359375 9.375 21.214844 9.375 C 21.070312 9.375 20.933594 9.453125 20.855469 9.585938 L 20.097656 10.882812 C 19.976562 10.890625 19.855469 10.90625 19.738281 10.917969 L 18.753906 9.804688 C 18.65625 9.691406 18.507812 9.640625 18.363281 9.671875 C 18.21875 9.703125 18.101562 9.808594 18.050781 9.953125 L 17.546875 11.375 C 17.429688 11.410156 17.3125 11.449219 17.199219 11.488281 L 16.03125 10.601562 C 15.910156 10.507812 15.757812 10.488281 15.621094 10.550781 C 15.488281 10.609375 15.390625 10.738281 15.367188 10.890625 L 15.136719 12.390625 C 15.027344 12.449219 14.921875 12.511719 14.816406 12.570312 L 13.503906 11.941406 C 13.371094 11.875 13.214844 11.890625 13.09375 11.976562 C 12.972656 12.0625 12.902344 12.207031 12.90625 12.363281 L 12.957031 13.886719 C 12.863281 13.964844 12.773438 14.046875 12.679688 14.125 L 11.277344 13.777344 C 11.132812 13.742188 10.984375 13.785156 10.878906 13.894531 C 10.777344 14.003906 10.734375 14.164062 10.769531 14.3125 L 11.097656 15.796875 C 11.023438 15.894531 10.945312 15.992188 10.871094 16.089844 L 9.429688 16.035156 C 9.28125 16.03125 9.144531 16.105469 9.0625 16.234375 C 8.980469 16.363281 8.96875 16.527344 9.03125 16.667969 L 9.628906 18.050781 C 9.570312 18.164062 9.511719 18.277344 9.457031 18.390625 L 8.035156 18.632812 C 7.890625 18.660156 7.769531 18.761719 7.710938 18.902344 C 7.65625 19.046875 7.675781 19.210938 7.761719 19.335938 L 8.601562 20.566406 C 8.59375 20.589844 8.589844 20.613281 8.582031 20.632812 L 6.203125 23.191406 C 6.203125 23.191406 5.839844 23.480469 6.371094 24.160156 C 6.839844 24.757812 9.238281 27.136719 10.507812 28.378906 C 11.042969 29.011719 11.410156 29.402344 11.449219 29.371094 C 11.507812 29.316406 11.191406 28.167969 10.136719 26.816406 C 9.324219 25.605469 8.269531 23.746094 8.515625 23.53125 C 8.515625 23.53125 8.796875 23.167969 9.363281 22.90625 C 9.382812 22.925781 9.339844 22.890625 9.363281 22.90625 C 9.363281 22.90625 21.285156 28.476562 32.34375 23 C 33.605469 22.773438 34.371094 23.457031 34.371094 23.457031 C 34.636719 23.613281 33.953125 25.527344 33.390625 26.792969 C 32.625 28.234375 32.515625 29.355469 32.578125 29.394531 C 32.621094 29.417969 32.898438 28.992188 33.292969 28.308594 C 34.273438 26.929688 36.121094 24.296875 36.460938 23.660156 C 36.84375 22.933594 36.460938 22.730469 36.460938 22.730469 "/>
        <path style=" stroke:none;fill-rule:nonzero;fill:rgb(0%,0%,0%);fill-opacity:1;" d="M 25.386719 26.257812 C 25.433594 26.21875 25.457031 26.195312 25.457031 26.195312 L 21.554688 25.828125 C 24.738281 21.574219 27.289062 25.007812 27.5625 25.386719 L 27.5625 26.257812 Z M 25.386719 26.257812 "/>
        <path style=" stroke:none;fill-rule:nonzero;fill:rgb(96.862745%,29.803923%,0%);fill-opacity:1;" d="M 10.390625 21.570312 C 10.390625 21.570312 7.167969 20.300781 6.625 18.933594 C 6.625 18.933594 10.402344 15.890625 5.882812 12.65625 L 5.757812 16.777344 C 5.757812 16.777344 4.417969 15.46875 4.476562 13.175781 C 4.476562 13.175781 0.3125 15.207031 5.1875 18.800781 C 5.1875 18.800781 5.351562 20.730469 9.738281 23.058594 Z M 10.390625 21.570312 "/>
        <path style=" stroke:none;fill-rule:nonzero;fill:rgb(0%,0%,0%);fill-opacity:1;" d="M 23.476562 19.828125 C 23.476562 19.828125 24.667969 18.507812 25.859375 19.828125 C 25.859375 19.828125 26.796875 21.589844 25.859375 22.472656 C 25.859375 22.472656 24.328125 23.703125 23.476562 22.472656 C 23.476562 22.472656 22.457031 21.503906 23.476562 19.828125 "/>
        <path style=" stroke:none;fill-rule:nonzero;fill:rgb(100%,100%,100%);fill-opacity:1;" d="M 24.855469 20.320312 C 24.855469 20.832031 24.558594 21.25 24.1875 21.25 C 23.816406 21.25 23.519531 20.832031 23.519531 20.320312 C 23.519531 19.804688 23.816406 19.386719 24.1875 19.386719 C 24.558594 19.386719 24.855469 19.804688 24.855469 20.320312 "/>
        <path style=" stroke:none;fill-rule:nonzero;fill:rgb(0%,0%,0%);fill-opacity:1;" d="M 18.160156 19.46875 C 18.160156 19.46875 20.203125 18.550781 20.761719 20.597656 C 20.761719 20.597656 21.34375 22.980469 19.082031 23.117188 C 19.082031 23.117188 16.195312 22.554688 18.160156 19.46875 "/>
        <path style=" stroke:none;fill-rule:nonzero;fill:rgb(100%,100%,100%);fill-opacity:1;" d="M 19.1875 20.351562 C 19.1875 20.882812 18.875 21.3125 18.496094 21.3125 C 18.113281 21.3125 17.804688 20.882812 17.804688 20.351562 C 17.804688 19.820312 18.113281 19.390625 18.496094 19.390625 C 18.875 19.390625 19.1875 19.820312 19.1875 20.351562 "/>
        <path style=" stroke:none;fill-rule:nonzero;fill:rgb(96.862745%,29.803923%,0%);fill-opacity:1;" d="M 31.367188 22.070312 C 31.367188 22.070312 30.941406 23.792969 28.289062 25.601562 L 27.542969 25.777344 C 27.542969 25.777344 25.136719 21.332031 21.726562 26.339844 C 21.726562 26.339844 22.789062 25.714844 25.636719 26.476562 C 25.636719 26.476562 24.328125 28.511719 21.6875 28.449219 C 21.6875 28.449219 24.21875 31.523438 28.066406 27.082031 C 28.066406 27.082031 32.140625 25.488281 32.46875 22.070312 Z M 31.367188 22.070312 "/>
        <path style=" stroke:none;fill-rule:nonzero;fill:url(#linear0);" d="M 6.714844 12.171875 C 5.84375 12.890625 5.269531 13.414062 5.269531 14.144531 C 5.269531 14.476562 5.269531 14.785156 5.265625 15.074219 C 5.25 15.121094 5.238281 15.164062 5.21875 15.214844 C 5.109375 12.226562 4.882812 10.738281 4.859375 10.246094 C 4.769531 8.242188 5.363281 5.582031 7.371094 4.621094 C 6.582031 6.796875 5.910156 9.335938 6.714844 12.171875 Z M 6.714844 12.171875 "/>
        <path style=" stroke:none;fill-rule:nonzero;fill:url(#linear1);" d="M 8.527344 10.589844 C 7.859375 11.246094 7.234375 11.746094 6.71875 12.171875 C 5.910156 9.335938 6.582031 6.796875 7.375 4.621094 C 7.578125 4.523438 7.792969 4.445312 8.027344 4.386719 C 8.242188 4.332031 8.449219 4.261719 8.652344 4.1875 C 8.132812 5.78125 7.921875 8.523438 8.527344 10.589844 Z M 8.527344 10.589844 "/>
        <path style=" stroke:none;fill-rule:nonzero;fill:url(#linear2);" d="M 9.691406 9.316406 L 9.671875 9.339844 C 9.28125 9.8125 8.898438 10.222656 8.527344 10.585938 C 7.921875 8.519531 8.132812 5.78125 8.648438 4.183594 C 9.445312 3.882812 10.128906 3.429688 10.683594 2.933594 C 10.816406 4.460938 10.898438 7.78125 9.691406 9.316406 Z M 9.691406 9.316406 "/>
        <path style=" stroke:none;fill-rule:nonzero;fill:url(#linear3);" d="M 12.171875 0.769531 C 12.109375 2.773438 11.808594 6.296875 10.535156 8.183594 C 10.253906 8.59375 9.972656 8.972656 9.695312 9.316406 C 10.898438 7.78125 10.816406 4.460938 10.6875 2.9375 C 11.511719 2.191406 12.035156 1.351562 12.171875 0.769531 Z M 12.171875 0.769531 "/>
        <path style=" stroke:none;fill-rule:nonzero;fill:url(#linear4);" d="M 13.75 5.375 C 12.507812 9.402344 9.675781 9.34375 9.675781 9.34375 L 9.695312 9.320312 C 9.972656 8.976562 10.253906 8.601562 10.535156 8.1875 C 11.8125 6.300781 12.109375 2.777344 12.171875 0.773438 C 12.195312 0.6875 12.207031 0.605469 12.210938 0.53125 C 12.445312 0.847656 13.394531 2.960938 13.75 5.375 Z M 13.75 5.375 "/>
        <path style=" stroke:none;fill-rule:nonzero;fill:url(#linear5);" d="M 12.949219 10.710938 C 11.070312 11.097656 8.527344 10.585938 8.527344 10.585938 C 8.902344 10.222656 9.285156 9.8125 9.675781 9.339844 C 9.675781 9.339844 12.507812 9.398438 13.75 5.371094 C 14.019531 7.203125 13.945312 9.203125 12.949219 10.710938 Z M 12.949219 10.710938 "/>
        <path style=" stroke:none;fill-rule:nonzero;fill:url(#linear6);" d="M 12.949219 10.710938 C 12.644531 11.167969 12.253906 11.582031 11.757812 11.933594 C 11.355469 12.203125 10.980469 12.4375 10.625 12.640625 C 8.613281 12.785156 6.714844 12.171875 6.714844 12.171875 C 7.234375 11.746094 7.855469 11.242188 8.527344 10.589844 C 8.527344 10.589844 11.070312 11.101562 12.949219 10.710938 Z M 12.949219 10.710938 "/>
        <path style=" stroke:none;fill-rule:nonzero;fill:url(#linear7);" d="M 10.625 12.640625 C 6.828125 14.808594 5.910156 13.132812 5.265625 15.074219 C 5.265625 14.785156 5.269531 14.476562 5.269531 14.144531 C 5.269531 13.414062 5.84375 12.890625 6.714844 12.171875 C 6.714844 12.171875 8.613281 12.785156 10.625 12.640625 Z M 10.625 12.640625 "/>
        <use xlink:href="#surface5" mask="url(#mask0)"/>
        <path style=" stroke:none;fill-rule:nonzero;fill:url(#linear9);" d="M 12.195312 0.574219 C 12.191406 0.648438 12.175781 0.730469 12.15625 0.816406 C 12.09375 2.820312 11.792969 6.347656 10.519531 8.230469 C 7.960938 12.003906 5.253906 12.601562 5.253906 14.1875 C 5.253906 14.519531 5.253906 14.828125 5.25 15.117188 C 5.949219 12.996094 6.980469 15.191406 11.738281 11.976562 C 15.96875 8.992188 12.660156 1.203125 12.195312 0.574219 Z M 12.195312 0.574219 "/>
        <path style=" stroke:none;fill-rule:nonzero;fill:url(#linear10);" d="M 10.609375 8.28125 C 11.886719 6.398438 12.136719 2.777344 12.203125 0.777344 C 12.222656 0.691406 12.214844 0.609375 12.214844 0.539062 C 12.214844 0.539062 12.214844 0.535156 12.214844 0.535156 C 12.210938 0.609375 12.195312 0.691406 12.175781 0.777344 C 12.113281 2.78125 11.796875 6.304688 10.523438 8.191406 C 7.96875 11.96875 5.261719 12.5625 5.261719 14.152344 C 5.261719 14.484375 5.261719 14.792969 5.257812 15.082031 C 5.257812 14.792969 5.257812 14.402344 5.359375 14.085938 C 5.964844 12.160156 8.054688 12.058594 10.609375 8.28125 Z M 10.609375 8.28125 "/>
        <path style=" stroke:none;fill-rule:nonzero;fill:url(#linear11);" d="M 5.257812 15.082031 C 5.671875 13.824219 6.203125 14.085938 7.5625 13.832031 C 6.195312 14.003906 5.632812 13.707031 5.257812 15.082031 Z M 5.257812 15.082031 "/>
        <path style=" stroke:none;fill-rule:nonzero;fill:url(#linear12);" d="M 8.210938 4.472656 C 10.554688 3.871094 11.921875 1.828125 12.175781 0.765625 C 11.921875 1.828125 10.371094 3.777344 8.03125 4.378906 C 5.5 5.03125 4.769531 8.035156 4.863281 10.242188 C 4.886719 10.734375 5.113281 12.222656 5.226562 15.210938 C 5.113281 12.222656 5.066406 10.824219 5.046875 10.335938 C 4.945312 8.128906 5.675781 5.121094 8.210938 4.472656 Z M 8.210938 4.472656 "/>
    </g>
</svg>
