<?xml version="1.0" encoding="UTF-8"?>
<svg xmlns="http://www.w3.org/2000/svg" xmlns:xlink="http://www.w3.org/1999/xlink" width="14px" height="14px" viewBox="0 0 14 14" version="1.1">
    <defs>
        <linearGradient id="linear0" gradientUnits="userSpaceOnUse" x1="122.860001" y1="297.440002" x2="199.389999" y2="297.440002" gradientTransform="matrix(0.01317,0,0,0.0158117,0.323261,-0.734559)">
            <stop offset="0" style="stop-color:rgb(17.254902%,41.960784%,20.784314%);stop-opacity:1;"/>
            <stop offset="1" style="stop-color:rgb(57.254902%,75.686275%,26.666667%);stop-opacity:1;"/>
        </linearGradient>
        <linearGradient id="linear1" gradientUnits="userSpaceOnUse" x1="168.380005" y1="253.399994" x2="238.160004" y2="253.399994" gradientTransform="matrix(0.01317,0,0,0.0158117,0.323261,-0.734559)">
            <stop offset="0" style="stop-color:rgb(17.254902%,41.960784%,20.784314%);stop-opacity:1;"/>
            <stop offset="1" style="stop-color:rgb(57.254902%,75.686275%,26.666667%);stop-opacity:1;"/>
        </linearGradient>
        <linearGradient id="linear2" gradientUnits="userSpaceOnUse" x1="223.279999" y1="217.570007" x2="302.149994" y2="217.570007" gradientTransform="matrix(0.01317,0,0,0.0158117,0.323261,-0.734559)">
            <stop offset="0" style="stop-color:rgb(17.254902%,41.960784%,20.784314%);stop-opacity:1;"/>
            <stop offset="1" style="stop-color:rgb(57.254902%,75.686275%,26.666667%);stop-opacity:1;"/>
        </linearGradient>
        <linearGradient id="linear3" gradientUnits="userSpaceOnUse" x1="269.839996" y1="174.029999" x2="345.200012" y2="174.029999" gradientTransform="matrix(0.01317,0,0,0.0158117,0.323261,-0.734559)">
            <stop offset="0" style="stop-color:rgb(17.254902%,41.960784%,20.784314%);stop-opacity:1;"/>
            <stop offset="1" style="stop-color:rgb(57.254902%,75.686275%,26.666667%);stop-opacity:1;"/>
        </linearGradient>
        <linearGradient id="linear4" gradientUnits="userSpaceOnUse" x1="327.519989" y1="256.630005" x2="351.559998" y2="97.269997" gradientTransform="matrix(0.01317,0,0,0.0158117,0.323261,-0.734559)">
            <stop offset="0" style="stop-color:rgb(57.254902%,75.686275%,26.666667%);stop-opacity:1;"/>
            <stop offset="1" style="stop-color:rgb(17.254902%,41.960784%,20.784314%);stop-opacity:1;"/>
        </linearGradient>
        <linearGradient id="linear5" gradientUnits="userSpaceOnUse" x1="234.460007" y1="251.75" x2="397.140015" y2="251.75" gradientTransform="matrix(0.01317,0,0,0.0158117,0.323261,-0.734559)">
            <stop offset="0" style="stop-color:rgb(57.254902%,75.686275%,26.666667%);stop-opacity:1;"/>
            <stop offset="1" style="stop-color:rgb(17.254902%,41.960784%,20.784314%);stop-opacity:1;"/>
        </linearGradient>
        <linearGradient id="linear6" gradientUnits="userSpaceOnUse" x1="179.449997" y1="340.579987" x2="368.709991" y2="340.579987" gradientTransform="matrix(0.01317,0,0,0.0158117,0.323261,-0.734559)">
            <stop offset="0" style="stop-color:rgb(57.254902%,75.686275%,26.666667%);stop-opacity:1;"/>
            <stop offset="1" style="stop-color:rgb(17.254902%,41.960784%,20.784314%);stop-opacity:1;"/>
        </linearGradient>
        <linearGradient id="linear7" gradientUnits="userSpaceOnUse" x1="135.460007" y1="391.130005" x2="298.23999" y2="391.130005" gradientTransform="matrix(0.01317,0,0,0.0158117,0.323261,-0.734559)">
            <stop offset="0" style="stop-color:rgb(57.254902%,75.686275%,26.666667%);stop-opacity:1;"/>
            <stop offset="1" style="stop-color:rgb(17.254902%,41.960784%,20.784314%);stop-opacity:1;"/>
        </linearGradient>
        <filter id="alpha" filterUnits="objectBoundingBox" x="0%" y="0%" width="100%" height="100%">
            <feColorMatrix type="matrix" in="SourceGraphic" values="0 0 0 0 1 0 0 0 0 1 0 0 0 0 1 0 0 0 1 0"/>
        </filter>
        <mask id="mask0">
            <g filter="url(#alpha)">
                <rect x="0" y="0" width="16" height="12" style="fill:rgb(0%,0%,0%);fill-opacity:0.439216;stroke:none;"/>
            </g>
        </mask>
        <linearGradient id="linear8" gradientUnits="userSpaceOnUse" x1="322.570007" y1="64.626999" x2="112.379997" y2="410.130005" gradientTransform="matrix(0.01317,0,0,0.0158117,0.323261,-0.734559)">
            <stop offset="0" style="stop-color:rgb(48.235294%,78.431373%,80.392157%);stop-opacity:1;"/>
            <stop offset="1" style="stop-color:rgb(48.235294%,78.431373%,80.392157%);stop-opacity:0;"/>
        </linearGradient>
        <clipPath id="clip1">
            <rect x="0" y="0" width="16" height="12"/>
        </clipPath>
        <g id="surface5" clip-path="url(#clip1)">
            <path style=" stroke:none;fill-rule:nonzero;fill:url(#linear8);" d="M 4.210938 3.28125 C 4.722656 2.527344 4.835938 1.117188 4.863281 0.316406 C 4.757812 0.742188 4.144531 1.519531 3.207031 1.761719 C 2.195312 2.019531 1.902344 3.222656 1.941406 4.105469 C 1.949219 4.304688 2.042969 4.898438 2.085938 6.09375 C 2.09375 6.074219 2.097656 6.054688 2.105469 6.039062 C 2.105469 5.921875 2.105469 5.800781 2.105469 5.667969 C 2.105469 5.03125 3.1875 4.792969 4.210938 3.28125 Z M 4.210938 3.28125 "/>
        </g>
        <linearGradient id="linear9" gradientUnits="userSpaceOnUse" x1="134.919998" y1="244.949997" x2="396.600006" y2="244.949997" gradientTransform="matrix(0.01317,0,0,0.0158117,0.323261,-0.734559)">
            <stop offset="0" style="stop-color:rgb(9.803922%,34.901961%,54.901961%);stop-opacity:1;"/>
            <stop offset="1" style="stop-color:rgb(9.803922%,34.901961%,54.901961%);stop-opacity:0;"/>
        </linearGradient>
        <linearGradient id="linear10" gradientUnits="userSpaceOnUse" x1="135.059998" y1="243.970001" x2="346.420013" y2="243.970001" gradientTransform="matrix(0.01317,0,0,0.0158117,0.323261,-0.734559)">
            <stop offset="0" style="stop-color:rgb(17.254902%,41.960784%,20.784314%);stop-opacity:1;"/>
            <stop offset="0.4988" style="stop-color:rgb(57.254902%,75.686275%,26.666667%);stop-opacity:1;"/>
            <stop offset="1" style="stop-color:rgb(17.254902%,41.960784%,20.784314%);stop-opacity:1;"/>
        </linearGradient>
        <linearGradient id="linear11" gradientUnits="userSpaceOnUse" x1="122.900002" y1="248.529999" x2="345.25" y2="248.529999" gradientTransform="matrix(0.01317,0,0,0.0158117,0.323261,-0.734559)">
            <stop offset="0" style="stop-color:rgb(17.254902%,41.960784%,20.784314%);stop-opacity:1;"/>
            <stop offset="0.4988" style="stop-color:rgb(57.254902%,75.686275%,26.666667%);stop-opacity:1;"/>
            <stop offset="1" style="stop-color:rgb(17.254902%,41.960784%,20.784314%);stop-opacity:1;"/>
        </linearGradient>
    </defs>
    <g id="surface1">
        <path style=" stroke:none;fill-rule:nonzero;fill:rgb(64.705884%,16.862746%,0%);fill-opacity:1;" d="M 8.511719 7.230469 C 7.183594 7.230469 5.984375 7.390625 5.078125 7.65625 L 5.078125 7.59375 C 4.175781 7.890625 3.597656 8.300781 3.597656 8.753906 C 3.597656 8.824219 3.613281 8.894531 3.640625 8.960938 L 3.546875 9.128906 C 3.546875 9.128906 3.472656 9.230469 3.605469 9.4375 C 3.722656 9.617188 4.304688 10.332031 4.609375 10.707031 C 4.742188 10.898438 4.832031 11.019531 4.839844 11.007812 C 4.851562 10.988281 4.757812 10.628906 4.496094 10.21875 C 4.375 9.996094 4.222656 9.703125 4.136719 9.488281 C 4.382812 9.644531 4.707031 9.785156 5.078125 9.910156 L 5.078125 9.90625 C 5.984375 10.171875 7.183594 10.332031 8.511719 10.332031 C 10.03125 10.332031 11.398438 10.121094 12.3125 9.785156 L 12.3125 7.777344 C 11.398438 7.441406 10.03125 7.230469 8.511719 7.230469 "/>
        <path style=" stroke:none;fill-rule:nonzero;fill:rgb(64.705884%,16.862746%,0%);fill-opacity:1;" d="M 13.679688 9.09375 L 13.523438 8.769531 C 13.523438 8.753906 13.523438 8.742188 13.523438 8.730469 C 13.523438 8.359375 13.144531 8.019531 12.503906 7.746094 L 12.503906 9.714844 C 12.804688 9.589844 13.046875 9.445312 13.21875 9.292969 C 13.167969 9.5 12.992188 9.921875 12.855469 10.214844 C 12.625 10.636719 12.542969 11.003906 12.554688 11.023438 C 12.5625 11.035156 12.640625 10.914062 12.753906 10.714844 C 13.019531 10.332031 13.527344 9.59375 13.628906 9.40625 C 13.746094 9.191406 13.679688 9.09375 13.679688 9.09375 "/>
        <path style=" stroke:none;fill-rule:nonzero;fill:rgb(96.862745%,29.803923%,0%);fill-opacity:1;" d="M 14.585938 9.09375 L 13.558594 8.328125 C 13.550781 8.292969 13.542969 8.261719 13.53125 8.226562 L 13.867188 7.734375 C 13.902344 7.683594 13.910156 7.617188 13.886719 7.5625 C 13.863281 7.503906 13.816406 7.464844 13.757812 7.453125 L 13.1875 7.355469 C 13.167969 7.308594 13.144531 7.265625 13.121094 7.222656 L 13.359375 6.667969 C 13.382812 6.609375 13.378906 6.546875 13.347656 6.492188 C 13.3125 6.441406 13.257812 6.414062 13.199219 6.414062 L 12.621094 6.4375 C 12.59375 6.398438 12.5625 6.359375 12.53125 6.320312 L 12.664062 5.726562 C 12.679688 5.664062 12.660156 5.601562 12.621094 5.558594 C 12.578125 5.515625 12.519531 5.496094 12.460938 5.511719 L 11.898438 5.652344 C 11.863281 5.617188 11.824219 5.585938 11.789062 5.554688 L 11.808594 4.945312 C 11.8125 4.882812 11.78125 4.824219 11.734375 4.789062 C 11.683594 4.757812 11.621094 4.75 11.570312 4.777344 L 11.046875 5.027344 C 11.003906 5.003906 10.960938 4.980469 10.917969 4.957031 L 10.824219 4.355469 C 10.816406 4.296875 10.777344 4.242188 10.722656 4.21875 C 10.667969 4.195312 10.605469 4.203125 10.558594 4.238281 L 10.09375 4.59375 C 10.046875 4.578125 10 4.566406 9.953125 4.550781 L 9.75 3.980469 C 9.730469 3.921875 9.683594 3.878906 9.625 3.867188 C 9.570312 3.855469 9.507812 3.875 9.46875 3.921875 L 9.078125 4.367188 C 9.027344 4.363281 8.980469 4.355469 8.933594 4.351562 L 8.628906 3.835938 C 8.597656 3.78125 8.542969 3.75 8.484375 3.75 C 8.425781 3.75 8.371094 3.78125 8.34375 3.835938 L 8.039062 4.351562 C 7.992188 4.355469 7.941406 4.363281 7.894531 4.367188 L 7.5 3.921875 C 7.460938 3.875 7.402344 3.855469 7.34375 3.867188 C 7.289062 3.878906 7.242188 3.921875 7.21875 3.980469 L 7.019531 4.550781 C 6.972656 4.566406 6.925781 4.578125 6.878906 4.59375 L 6.414062 4.238281 C 6.363281 4.203125 6.304688 4.195312 6.25 4.21875 C 6.195312 4.242188 6.15625 4.296875 6.148438 4.355469 L 6.054688 4.957031 C 6.011719 4.980469 5.96875 5.003906 5.925781 5.027344 L 5.402344 4.777344 C 5.347656 4.75 5.285156 4.757812 5.238281 4.789062 C 5.1875 4.824219 5.160156 4.882812 5.164062 4.945312 L 5.183594 5.554688 C 5.144531 5.585938 5.109375 5.617188 5.074219 5.652344 L 4.511719 5.511719 C 4.453125 5.496094 4.394531 5.515625 4.351562 5.558594 C 4.3125 5.601562 4.292969 5.664062 4.308594 5.726562 L 4.4375 6.320312 C 4.410156 6.359375 4.378906 6.398438 4.347656 6.4375 L 3.773438 6.414062 C 3.714844 6.414062 3.65625 6.441406 3.625 6.492188 C 3.59375 6.546875 3.585938 6.609375 3.613281 6.667969 L 3.851562 7.222656 C 3.828125 7.265625 3.804688 7.308594 3.78125 7.355469 L 3.214844 7.453125 C 3.15625 7.464844 3.105469 7.503906 3.085938 7.5625 C 3.0625 7.617188 3.070312 7.683594 3.105469 7.734375 L 3.441406 8.226562 C 3.4375 8.234375 3.433594 8.246094 3.433594 8.253906 L 2.480469 9.277344 C 2.480469 9.277344 2.335938 9.390625 2.546875 9.664062 C 2.734375 9.902344 3.695312 10.855469 4.203125 11.351562 C 4.417969 11.605469 4.5625 11.761719 4.578125 11.746094 C 4.605469 11.726562 4.476562 11.265625 4.054688 10.726562 C 3.730469 10.242188 3.308594 9.496094 3.40625 9.410156 C 3.40625 9.410156 3.519531 9.265625 3.746094 9.164062 C 3.753906 9.167969 3.734375 9.15625 3.746094 9.164062 C 3.746094 9.164062 8.511719 11.390625 12.9375 9.199219 C 13.441406 9.109375 13.75 9.382812 13.75 9.382812 C 13.855469 9.445312 13.582031 10.210938 13.355469 10.71875 C 13.050781 11.292969 13.003906 11.742188 13.03125 11.757812 C 13.046875 11.769531 13.160156 11.597656 13.316406 11.324219 C 13.710938 10.773438 14.449219 9.71875 14.585938 9.464844 C 14.738281 9.171875 14.585938 9.09375 14.585938 9.09375 "/>
        <path style=" stroke:none;fill-rule:nonzero;fill:rgb(0%,0%,0%);fill-opacity:1;" d="M 10.15625 10.503906 C 10.171875 10.488281 10.183594 10.480469 10.183594 10.480469 L 8.621094 10.332031 C 9.894531 8.628906 10.914062 10.003906 11.023438 10.15625 L 11.023438 10.503906 Z M 10.15625 10.503906 "/>
        <path style=" stroke:none;fill-rule:nonzero;fill:rgb(96.862745%,29.803923%,0%);fill-opacity:1;" d="M 4.15625 8.628906 C 4.15625 8.628906 2.867188 8.121094 2.648438 7.574219 C 2.648438 7.574219 4.160156 6.355469 2.351562 5.0625 L 2.304688 6.710938 C 2.304688 6.710938 1.769531 6.1875 1.792969 5.269531 C 1.792969 5.269531 0.125 6.082031 2.074219 7.519531 C 2.074219 7.519531 2.140625 8.292969 3.894531 9.222656 Z M 4.15625 8.628906 "/>
        <path style=" stroke:none;fill-rule:nonzero;fill:rgb(0%,0%,0%);fill-opacity:1;" d="M 9.390625 7.929688 C 9.390625 7.929688 9.867188 7.402344 10.34375 7.929688 C 10.34375 7.929688 10.71875 8.636719 10.34375 8.988281 C 10.34375 8.988281 9.730469 9.480469 9.390625 8.988281 C 9.390625 8.988281 8.980469 8.601562 9.390625 7.929688 "/>
        <path style=" stroke:none;fill-rule:nonzero;fill:rgb(100%,100%,100%);fill-opacity:1;" d="M 9.941406 8.128906 C 9.941406 8.332031 9.824219 8.5 9.675781 8.5 C 9.527344 8.5 9.40625 8.332031 9.40625 8.128906 C 9.40625 7.921875 9.527344 7.753906 9.675781 7.753906 C 9.824219 7.753906 9.941406 7.921875 9.941406 8.128906 "/>
        <path style=" stroke:none;fill-rule:nonzero;fill:rgb(0%,0%,0%);fill-opacity:1;" d="M 7.261719 7.789062 C 7.261719 7.789062 8.082031 7.421875 8.304688 8.238281 C 8.304688 8.238281 8.539062 9.191406 7.632812 9.246094 C 7.632812 9.246094 6.480469 9.019531 7.261719 7.789062 "/>
        <path style=" stroke:none;fill-rule:nonzero;fill:rgb(100%,100%,100%);fill-opacity:1;" d="M 7.675781 8.140625 C 7.675781 8.351562 7.550781 8.527344 7.398438 8.527344 C 7.246094 8.527344 7.121094 8.351562 7.121094 8.140625 C 7.121094 7.929688 7.246094 7.757812 7.398438 7.757812 C 7.550781 7.757812 7.675781 7.929688 7.675781 8.140625 "/>
        <path style=" stroke:none;fill-rule:nonzero;fill:rgb(96.862745%,29.803923%,0%);fill-opacity:1;" d="M 12.546875 8.828125 C 12.546875 8.828125 12.375 9.515625 11.316406 10.242188 L 11.015625 10.3125 C 11.015625 10.3125 10.054688 8.53125 8.691406 10.535156 C 8.691406 10.535156 9.113281 10.285156 10.253906 10.589844 C 10.253906 10.589844 9.730469 11.402344 8.675781 11.378906 C 8.675781 11.378906 9.6875 12.609375 11.226562 10.832031 C 11.226562 10.832031 12.855469 10.195312 12.988281 8.828125 Z M 12.546875 8.828125 "/>
        <path style=" stroke:none;fill-rule:nonzero;fill:url(#linear0);" d="M 2.6875 4.867188 C 2.339844 5.15625 2.109375 5.367188 2.109375 5.65625 C 2.109375 5.789062 2.109375 5.914062 2.105469 6.03125 C 2.101562 6.046875 2.09375 6.066406 2.089844 6.085938 C 2.042969 4.890625 1.953125 4.296875 1.941406 4.097656 C 1.90625 3.296875 2.144531 2.234375 2.949219 1.847656 C 2.632812 2.71875 2.363281 3.734375 2.6875 4.867188 Z M 2.6875 4.867188 "/>
        <path style=" stroke:none;fill-rule:nonzero;fill:url(#linear1);" d="M 3.410156 4.238281 C 3.144531 4.5 2.894531 4.699219 2.6875 4.867188 C 2.363281 3.734375 2.632812 2.71875 2.949219 1.847656 C 3.03125 1.808594 3.117188 1.777344 3.210938 1.753906 C 3.296875 1.730469 3.378906 1.707031 3.460938 1.675781 C 3.253906 2.3125 3.167969 3.410156 3.410156 4.238281 Z M 3.410156 4.238281 "/>
        <path style=" stroke:none;fill-rule:nonzero;fill:url(#linear2);" d="M 3.875 3.726562 L 3.867188 3.734375 C 3.714844 3.925781 3.558594 4.089844 3.410156 4.234375 C 3.167969 3.40625 3.253906 2.3125 3.460938 1.671875 C 3.777344 1.554688 4.050781 1.371094 4.273438 1.175781 C 4.328125 1.785156 4.359375 3.113281 3.875 3.726562 Z M 3.875 3.726562 "/>
        <path style=" stroke:none;fill-rule:nonzero;fill:url(#linear3);" d="M 4.871094 0.308594 C 4.84375 1.109375 4.722656 2.519531 4.214844 3.273438 C 4.101562 3.4375 3.988281 3.589844 3.878906 3.726562 C 4.359375 3.113281 4.328125 1.785156 4.273438 1.175781 C 4.605469 0.875 4.8125 0.539062 4.871094 0.308594 Z M 4.871094 0.308594 "/>
        <path style=" stroke:none;fill-rule:nonzero;fill:url(#linear4);" d="M 5.5 2.148438 C 5.003906 3.761719 3.871094 3.738281 3.871094 3.738281 L 3.878906 3.726562 C 3.988281 3.589844 4.101562 3.441406 4.214844 3.273438 C 4.726562 2.519531 4.84375 1.109375 4.871094 0.308594 C 4.878906 0.273438 4.882812 0.242188 4.882812 0.210938 C 4.980469 0.339844 5.359375 1.183594 5.5 2.148438 Z M 5.5 2.148438 "/>
        <path style=" stroke:none;fill-rule:nonzero;fill:url(#linear5);" d="M 5.179688 4.285156 C 4.429688 4.4375 3.410156 4.234375 3.410156 4.234375 C 3.558594 4.089844 3.714844 3.925781 3.871094 3.734375 C 3.871094 3.734375 5.003906 3.757812 5.5 2.148438 C 5.609375 2.882812 5.578125 3.683594 5.179688 4.285156 Z M 5.179688 4.285156 "/>
        <path style=" stroke:none;fill-rule:nonzero;fill:url(#linear6);" d="M 5.179688 4.285156 C 5.058594 4.46875 4.902344 4.632812 4.703125 4.773438 C 4.542969 4.882812 4.390625 4.976562 4.25 5.054688 C 3.445312 5.113281 2.6875 4.867188 2.6875 4.867188 C 2.894531 4.699219 3.144531 4.496094 3.410156 4.238281 C 3.410156 4.238281 4.429688 4.441406 5.179688 4.285156 Z M 5.179688 4.285156 "/>
        <path style=" stroke:none;fill-rule:nonzero;fill:url(#linear7);" d="M 4.25 5.054688 C 2.730469 5.921875 2.363281 5.253906 2.105469 6.03125 C 2.105469 5.914062 2.109375 5.789062 2.109375 5.65625 C 2.109375 5.367188 2.339844 5.15625 2.6875 4.867188 C 2.6875 4.867188 3.445312 5.113281 4.25 5.054688 Z M 4.25 5.054688 "/>
        <use xlink:href="#surface5" mask="url(#mask0)"/>
        <path style=" stroke:none;fill-rule:nonzero;fill:url(#linear9);" d="M 4.878906 0.230469 C 4.875 0.261719 4.871094 0.292969 4.863281 0.328125 C 4.839844 1.128906 4.714844 2.539062 4.207031 3.292969 C 3.183594 4.800781 2.101562 5.039062 2.101562 5.675781 C 2.101562 5.808594 2.101562 5.933594 2.101562 6.046875 C 2.378906 5.199219 2.792969 6.078125 4.695312 4.789062 C 6.386719 3.597656 5.0625 0.480469 4.878906 0.230469 Z M 4.878906 0.230469 "/>
        <path style=" stroke:none;fill-rule:nonzero;fill:url(#linear10);" d="M 4.242188 3.3125 C 4.753906 2.558594 4.855469 1.109375 4.882812 0.3125 C 4.890625 0.277344 4.886719 0.246094 4.886719 0.214844 C 4.882812 0.246094 4.878906 0.277344 4.871094 0.3125 C 4.847656 1.113281 4.71875 2.523438 4.210938 3.277344 C 3.1875 4.785156 2.105469 5.027344 2.105469 5.660156 C 2.105469 5.792969 2.105469 5.917969 2.105469 6.03125 C 2.105469 5.917969 2.105469 5.761719 2.144531 5.632812 C 2.386719 4.863281 3.222656 4.824219 4.242188 3.3125 Z M 4.242188 3.3125 "/>
        <path style=" stroke:none;fill-rule:nonzero;fill:rgb(0%,0%,0%);fill-opacity:1;" d="M 2.101562 6.03125 C 2.269531 5.53125 2.480469 5.632812 3.023438 5.535156 C 2.476562 5.601562 2.253906 5.484375 2.101562 6.03125 Z M 2.101562 6.03125 "/>
        <path style=" stroke:none;fill-rule:nonzero;fill:url(#linear11);" d="M 3.285156 1.789062 C 4.222656 1.546875 4.769531 0.730469 4.871094 0.304688 C 4.769531 0.730469 4.148438 1.511719 3.210938 1.75 C 2.199219 2.011719 1.90625 3.214844 1.945312 4.097656 C 1.953125 4.292969 2.046875 4.890625 2.089844 6.085938 C 2.046875 4.890625 2.027344 4.328125 2.019531 4.132812 C 1.980469 3.25 2.269531 2.046875 3.285156 1.789062 Z M 3.285156 1.789062 "/>
    </g>
</svg>
