<!-- Copyright 2000-2024 JetBrains s.r.o. and contributors. Use of this source code is governed by the Apache 2.0 license. -->
<svg width="16" height="16" viewBox="0 0 16 16" fill="none" xmlns="http://www.w3.org/2000/svg">
<path fill-rule="evenodd" clip-rule="evenodd" d="M2.08296 7C2.55904 4.16229 5.027 2 8 2C10.973 2 13.441 4.16229 13.917 7H12C10.8954 7 10 7.89543 10 9V12C10 13.1046 10.8954 14 12 14H13C14.1046 14 15 13.1046 15 12V8C15 4.13401 11.866 1 8 1C4.13401 1 1 4.13401 1 8V12C1 13.1046 1.89543 14 3 14H4C5.10457 14 6 13.1046 6 12V9C6 7.89543 5.10457 7 4 7H2.08296ZM12 8H14V12C14 12.5523 13.5523 13 13 13H12C11.4477 13 11 12.5523 11 12V9C11 8.44772 11.4477 8 12 8ZM2 12V8H4C4.55228 8 5 8.44772 5 9V12C5 12.5523 4.55228 13 4 13H3C2.44772 13 2 12.5523 2 12Z" fill="#208A3C"/>
<path d="M14 8H12C11.4477 8 11 8.44772 11 9V12C11 12.5523 11.4477 13 12 13H13C13.5523 13 14 12.5523 14 12V8Z" fill="#F2FCF3"/>
<path d="M2 8V12C2 12.5523 2.44772 13 3 13H4C4.55228 13 5 12.5523 5 12V9C5 8.44772 4.55228 8 4 8H2Z" fill="#F2FCF3"/>
</svg>
