<!-- Copyright 2000-2024 JetBrains s.r.o. and contributors. Use of this source code is governed by the Apache 2.0 license. -->
<svg width="16" height="16" viewBox="0 0 16 16" fill="none" xmlns="http://www.w3.org/2000/svg">
<g clip-path="url(#clip0_18201_14959)">
<path d="M10 0.50003C10 0.286428 9.86431 0.0964151 9.66227 0.0270934C9.46023 -0.0422283 9.23647 0.0244523 9.10533 0.19306L2.10533 9.19306C1.98809 9.3438 1.96694 9.54816 2.05085 9.71971C2.13475 9.89125 2.30904 10 2.5 10H6V15.5C6 15.7136 6.13569 15.9036 6.33774 15.973C6.53978 16.0423 6.76354 15.9756 6.89468 15.807L8.26997 14.0388C8.12222 13.6327 8.03127 13.1994 8.00674 12.7484L7 14.0428V9.50003C7 9.22389 6.77615 9.00003 6.5 9.00003H3.52232L9 1.9573V6.50003C9 6.77617 9.22386 7.00003 9.5 7.00003H12.4777L11.6354 8.08298C11.9152 8.02853 12.2043 8 12.5 8C12.6517 8 12.8017 8.00751 12.9495 8.02217L13.8947 6.807C14.0119 6.65626 14.0331 6.4519 13.9492 6.28035C13.8653 6.10881 13.691 6.00003 13.5 6.00003H10V0.50003Z" fill="#208A3C"/>
<path d="M8.0059 12.7484C8.00143 12.6661 7.99916 12.5833 7.99916 12.5C7.99916 10.3104 9.56293 8.48612 11.6345 8.08296L12.4768 7.00001H9.49916C9.22302 7.00001 8.99916 6.77615 8.99916 6.50001V1.95728L3.52148 9.00001H6.49916C6.77531 9.00001 6.99916 9.22386 6.99916 9.50001V14.0427L8.0059 12.7484Z" fill="#F2FCF3"/>
<circle cx="12.5" cy="12.5" r="3" stroke="#DB3B4B"/>
<circle cx="12.5" cy="12.5" r="1" fill="#DB3B4B" stroke="#DB3B4B"/>
</g>
<defs>
<clipPath id="clip0_18201_14959">
<rect width="16" height="16" fill="white"/>
</clipPath>
</defs>
</svg>
