<!-- Copyright 2000-2024 JetBrains s.r.o. and contributors. Use of this source code is governed by the Apache 2.0 license. -->
<svg width="16" height="16" viewBox="0 0 16 16" fill="none" xmlns="http://www.w3.org/2000/svg">
<g clip-path="url(#clip0_18201_14965)">
<path d="M9 12C9 10.3431 10.3431 9 12 9C12.8881 9 13.6866 9.38587 14.2362 10H13.5C13.2239 10 13 10.2239 13 10.5C13 10.7761 13.2239 11 13.5 11H15.1527C15.1599 11.0002 15.1671 11.0002 15.1743 11H15.5C15.7761 11 16 10.7761 16 10.5V8.5C16 8.22386 15.7761 8 15.5 8C15.2239 8 15 8.22386 15 8.5V9.3543C14.2674 8.5242 13.1952 8 12 8C9.79086 8 8 9.79086 8 12C8 14.2091 9.79086 16 12 16C14.0156 16 15.6822 14.5097 15.9595 12.5708C15.9986 12.2974 15.8087 12.0441 15.5354 12.005C15.262 11.9659 15.0087 12.1558 14.9696 12.4292C14.7617 13.8826 13.5109 15 12 15C10.3431 15 9 13.6569 9 12Z" fill="#6C707E"/>
<path d="M9.66227 0.0270934C9.86431 0.0964151 10 0.286428 10 0.50003V6.00003L13.5 6C13.7761 6 14 6.22386 14 6.5C14 6.77614 13.7761 7 13.5 7L9.5 7.00003C9.22386 7.00003 9 6.77617 9 6.50003V1.9573L3.52232 9.00003H6.5C6.77615 9.00003 7 9.22389 7 9.50003V14.0428L7.28702 13.6737C7.41268 14.0276 7.57705 14.363 7.77505 14.6751L6.89468 15.807C6.76354 15.9756 6.53978 16.0423 6.33774 15.973C6.13569 15.9036 6 15.7136 6 15.5V10H2.5C2.30904 10 2.13475 9.89125 2.05085 9.71971C1.96694 9.54816 1.98809 9.3438 2.10533 9.19306L9.10533 0.19306C9.23647 0.0244523 9.46023 -0.0422283 9.66227 0.0270934Z" fill="#208A3C"/>
<path d="M7.28618 13.6737C7.10099 13.1523 6.99988 12.591 6.99916 12.0062V14.0427L7.28618 13.6737Z" fill="#F2FCF3"/>
<path d="M6.99916 11.9937C7.00253 9.23877 9.234 7.00579 11.9884 6.99999L9.49916 7.00001C9.22302 7.00001 8.99916 6.77615 8.99916 6.50001V1.95728L3.52148 9.00001H6.49916C6.77531 9.00001 6.99916 9.22386 6.99916 9.50001V11.9937Z" fill="#F2FCF3"/>
</g>
<defs>
<clipPath id="clip0_18201_14965">
<rect width="16" height="16" fill="white"/>
</clipPath>
</defs>
</svg>
