<svg width="16" height="16" viewBox="0 0 16 16" fill="none" xmlns="http://www.w3.org/2000/svg">
<path fill-rule="evenodd" clip-rule="evenodd" d="M10 9C9.44772 9 9 9.44772 9 10L9 15C9 15.5523 9.44772 16 10 16L15 16C15.5523 16 16 15.5523 16 15L16 10C16 9.44772 15.5523 9.00001 15 9.00001L10 9ZM10 11L10 10H12L12 11H10ZM10 12L10 15H12L12 12H10ZM13 15H15L15 12H13L13 15ZM15 11L15 10H13L13 11H15Z" fill="#6C707E"/>
<path d="M14.9085 8C14.6336 6.42691 13.7508 4.87305 12.4211 3.54342C9.55592 0.678305 5.60271 -0.0339965 2.76887 2.79978C-0.0649635 5.63356 0.749897 9.73619 3.48908 12.4753C4.78534 13.7716 6.37645 14.6544 8 14.9178V10C8 8.89543 8.89543 8 10 8H14.9085Z" fill="#F2FCF3"/>
<path d="M14.9085 8C14.6336 6.42691 13.7507 4.87305 12.4211 3.54342C9.55592 0.678305 5.60271 -0.0339965 2.76887 2.79978C-0.0649632 5.63356 0.749897 9.73619 3.48908 12.4753C4.78534 13.7716 6.37645 14.6544 8 14.9178V13.9003C6.67106 13.6449 5.32751 12.8967 4.19761 11.7668C2.96238 10.5316 2.1978 9.02377 2.03495 7.5621C1.89119 6.27175 2.20946 4.98843 3.13864 3.87802L8.26506 9.00434C8.43416 8.71032 8.67585 8.46335 8.96566 8.28789L3.84627 3.1686C4.96097 2.22632 6.21752 1.89609 7.47661 2.03083C8.90451 2.18363 10.4065 2.94592 11.7126 4.25194C12.8782 5.4176 13.6227 6.72614 13.8884 8H14.9085Z" fill="#208A3C"/>
</svg>
