<svg width="16" height="16" viewBox="0 0 16 16" fill="none" xmlns="http://www.w3.org/2000/svg">
<path fill-rule="evenodd" clip-rule="evenodd" d="M4.85355 8.14645C4.65829 7.95118 4.34171 7.95118 4.14645 8.14645L1.14645 11.1464C0.951185 11.3417 0.951185 11.6583 1.14645 11.8536L4.14645 14.8536C4.34171 15.0488 4.65829 15.0488 4.85355 14.8536C5.04882 14.6583 5.04882 14.3417 4.85355 14.1464L2.70709 12H8.5C8.77614 12 9 11.7761 9 11.5C9 11.2238 8.77614 11 8.5 11H2.70713L4.85355 8.85355C5.04882 8.65829 5.04882 8.34171 4.85355 8.14645Z" fill="#6C707E"/>
<path d="M13.1805 13.2112C16.0769 10.3148 15.2863 6.40854 12.4211 3.54342C9.55592 0.678305 5.60271 -0.0339965 2.76887 2.79978C0.870606 4.69801 0.609543 7.16558 1.46739 9.41129L3.43934 7.43934C4.02513 6.85355 4.97487 6.85355 5.56066 7.43934C6.14645 8.02513 6.14645 8.97487 5.56066 9.56066L5.12134 9.99998H8.5C9.32843 9.99998 10 10.6716 10 11.5C10 12.3284 9.32843 13 8.5 13H5.1213L5.56066 13.4393C5.79466 13.6733 5.93518 13.9654 5.98223 14.2692C8.36069 15.4195 11.0764 15.3151 13.1805 13.2112Z" fill="#F2FCF3"/>
<path fill-rule="evenodd" clip-rule="evenodd" d="M13.1805 13.2112C16.0769 10.3148 15.2863 6.40854 12.4211 3.54342C9.55592 0.678305 5.60271 -0.0339965 2.76887 2.79978C0.870606 4.69801 0.609543 7.16558 1.46739 9.41129L2.25582 8.62286C2.14845 8.26957 2.07421 7.91449 2.03495 7.5621C1.89119 6.27175 2.20946 4.98843 3.13864 3.87802L12.1028 12.842C10.9657 13.8003 9.67759 14.1137 8.3937 13.9615C7.50604 13.8563 6.60165 13.5247 5.74936 13H5.1213L5.56066 13.4393C5.79466 13.6733 5.93518 13.9654 5.98223 14.2692C8.36069 15.4195 11.0764 15.3151 13.1805 13.2112ZM13.9658 8.47924C13.8035 7.05797 13.025 5.56439 11.7126 4.25194C10.4065 2.94592 8.90451 2.18363 7.47661 2.03083C6.21752 1.89609 4.96097 2.22632 3.84627 3.1686L12.8122 12.1344C13.7837 10.9927 14.1089 9.73177 13.9658 8.47924Z" fill="#208A3C"/>
</svg>
