<!-- Copyright 2000-2023 JetBrains s.r.o. and contributors. Use of this source code is governed by the Apache 2.0 license. -->
<svg width="16" height="16" viewBox="0 0 16 16" fill="none" xmlns="http://www.w3.org/2000/svg">
<path d="M9.87873 12.9851L10.5 13.1404V12.5V11.6404L11.8787 11.9851L12.5 12.1404V11.5L12.5 10.6404L15.1213 11.2957C15.3439 11.3514 15.5 11.5513 15.5 11.7808V15C15.5 15.2761 15.2761 15.5 15 15.5H9C8.72386 15.5 8.5 15.2761 8.5 15V12.6404L9.87873 12.9851Z" fill="#EBECF0" stroke="#6C707E"/>
<path d="M14.9601 9.70925C15.2152 7.5834 14.2329 5.35524 12.4211 3.54342C9.55592 0.678305 5.60271 -0.0339965 2.76887 2.79978C-0.0649635 5.63356 0.749897 9.73619 3.48908 12.4753C4.51749 13.5037 5.73147 14.2719 7 14.677V12.6404C7 11.6645 7.91708 10.9485 8.8638 11.1852L9.05603 11.2332C9.06249 11.2103 9.06949 11.1875 9.07702 11.1649L9.07887 11.1594L9.08259 11.1485C9.3274 10.4424 10.0825 9.98985 10.8638 10.1852L11.056 10.2332C11.0625 10.2103 11.0695 10.1875 11.077 10.1649L11.0789 10.1594L11.0826 10.1485C11.3274 9.44242 12.0825 8.98985 12.8638 9.18517L14.9601 9.70925Z" fill="#F2FCF3"/>
<path d="M14.9601 9.70925C15.2152 7.5834 14.2329 5.35524 12.4211 3.54342C9.55592 0.678305 5.60271 -0.0339965 2.76887 2.79978C-0.0649632 5.63356 0.749897 9.73619 3.48908 12.4753C4.51749 13.5037 5.73147 14.2719 7 14.677V13.6165C6.00996 13.2452 5.04386 12.613 4.19761 11.7668C2.96238 10.5316 2.1978 9.02377 2.03495 7.5621C1.89119 6.27175 2.20946 4.98843 3.13864 3.87802L9.65919 10.3984C9.99525 10.1701 10.4248 10.0758 10.8627 10.1849L3.84627 3.1686C4.96097 2.22632 6.21752 1.89609 7.47661 2.03083C8.90451 2.18363 10.4065 2.94592 11.7126 4.25194C13.025 5.56439 13.8035 7.05797 13.9658 8.47924C14.0033 8.80763 14.0086 9.13661 13.9786 9.46387L14.9601 9.70925Z" fill="#208A3C"/>
</svg>
